<svg xmlns="http://www.w3.org/2000/svg" viewBox="0 0 120 23"><defs><style>.cls-1{fill:#006194;}</style></defs><title>Asset 1</title><g id="Layer_2" data-name="Layer 2"><g id="Layer_1-2" data-name="Layer 1"><path class="cls-1" d="M.38,5a9,9,0,0,0,.15,1c.08.3.79,2,.84,2.33a5.38,5.38,0,0,1,.05.84,3.52,3.52,0,0,0,1,.46c.27,0,.9-.59,1.17-.66,0-.73-.19-.8-.12-1.18a6.32,6.32,0,0,1,.46-1.27A1,1,0,0,0,4,5.85a.73.73,0,0,1,.12.54c-.07.4-.41,1-.45,1.28s0,.58.07.64a5.41,5.41,0,0,0,2.11-.67,16.75,16.75,0,0,1,1.55-.76A9.13,9.13,0,0,0,6.19,5.06,5.6,5.6,0,0,0,4.81,3.88a4.4,4.4,0,0,0-2.3-.44,8.76,8.76,0,0,0-1.44.28S.61,3.34.26,3.46L.47,4,0,4.25A6.88,6.88,0,0,1,.38,5ZM47.65,9.65A2.84,2.84,0,0,0,45,7.37a1.8,1.8,0,0,0-2,1.68c0,1.26,1.26,1.71,3.3,2.45s5.27,1.92,5.27,5.64c0,3.13-2.29,5.86-6.79,5.86a6.52,6.52,0,0,1-5-1.93A7.17,7.17,0,0,1,38.11,18l3.67-1a3.14,3.14,0,0,0,3.06,2.74c1.43,0,2.44-.77,2.44-2s-1.2-1.82-2.64-2.31c-2.6-.92-5.75-2-5.75-5.73,0-2.86,1.91-5.61,6.1-5.61,4.75,0,5.75,3.05,6.15,4.26Zm-10.11-5V7.81H30.12v4.24h5.76v3.16H30.12v4.52h7.42V23H25.94V4.65ZM21.17,15.11c.05-.18.09-.37.13-.52l.33-1.13.47-1.58a2.35,2.35,0,0,0-2.28-3,1.87,1.87,0,0,0-.34,0l-.23,0-.11,0-.08,0-.16-.06-.26-.12a5.31,5.31,0,0,0-1.34-.38,6.81,6.81,0,0,0-.78,0,5.89,5.89,0,0,0-.95.08,5.35,5.35,0,0,0-1,.27,2.09,2.09,0,0,1-.37.1c-.21,0-.23-.21-.48-.21a1.62,1.62,0,0,0-.35.12l0,0a8.84,8.84,0,0,1,1,2.42v.05l0,.12-3.4,1.35-.61-1.46s-.63.43-1,.62a6.73,6.73,0,0,1,0,.76c0,1-.24,2.47-.29,2.93-.05.06-.09.11-.17.11s-1-.09-1.19-.41L8,12.93l.11-1.6L9.29,8.61l.19-.42.34.8,1.4,3.31,3-1.18v0h0v0a8.54,8.54,0,0,0-1.1-2.53l0-.06c0-.06,0-.05,0-.07l.79-.29-.2-.52.2-.16-.06,0-.19-.16L13.35,7,13,6.66l-.17-.14-.06,0,.08-.11L13,6.13a3.25,3.25,0,0,0,.33-.57,2.87,2.87,0,0,0,.15-.37.82.82,0,0,0,0-.14,2.73,2.73,0,0,0,.1-.48,1.32,1.32,0,0,0,0-.28v0a.89.89,0,0,0-.15-.5.72.72,0,0,0-.11-.15h0a.47.47,0,0,0-.1-.1A.79.79,0,0,0,13,3.35a.51.51,0,0,0-.17-.08V3.11l-.1,0-.27.07h0c0-.17.23-.2.3-.3a.07.07,0,0,0,0-.06.08.08,0,0,0,0-.06.21.21,0,0,1,0-.11v0l0,0,0,0,0,0,.06-.06a1.27,1.27,0,0,0,.34-.62V1.71a1,1,0,0,0,0-.24l0-.07a1.14,1.14,0,0,0-.4-.67.81.81,0,0,0-.18-.12v0a1.73,1.73,0,0,0-.24-.1l0,0h0L12.13.41l-.21,0h-.49l0,0v0l-.09.17h0l0,0c-.12.11-.32.14-.36.24l-.22.44s-.36.4-.36.42,0,.11-.05.16L10,1.88s0-.14,0-.17-.26-.33-.39-.32l-.48,0A2.07,2.07,0,0,1,8.37.13v0l0,0a.18.18,0,0,0-.18,0A.6.6,0,0,0,8,.08a1.75,1.75,0,0,0-.3.22L7.57.38a1.86,1.86,0,0,0-.14.2.36.36,0,0,0-.07.34h0A2.51,2.51,0,0,0,8.71,2l.05,0a1,1,0,0,0-.24.38H7.93V4h0v.19a1,1,0,0,0,.09.21l0,0a.8.8,0,0,0,.54.32h.94L8.23,6.28l.53.44a1.33,1.33,0,0,1-.2.24c-.1,0-.66.1-.62.36a.92.92,0,0,0,0,.09,1.48,1.48,0,0,0,.23.36c.09.12.28.13.35.32a.54.54,0,0,0-.21.27,6.89,6.89,0,0,1-.85-1.19c-.68.17-2.33,1.07-2.76,1.2a6.93,6.93,0,0,1-.94.18,1.06,1.06,0,0,1,.09.31s-.13.08-.28.17a.69.69,0,0,0-.22.17,2.46,2.46,0,0,1-.16,1.09c0,.12-.09.24-.13.37l0,.12L3,11.06c0,.13,0,.25,0,.38v.32c0,.16,0,.32,0,.47l0,.1,0,.14c0,.18.11.34.17.5l0,0v0h.06a1.51,1.51,0,0,0,.29-.13l.18-.13A1.14,1.14,0,0,0,4,12.64a1.48,1.48,0,0,1-.43.53l-.1.07-.08,0s-.45.15-.54.16a12.34,12.34,0,0,0-1.43.32c-.08,0-.22-.15-.65-.11a.84.84,0,0,0-.74.72c0,.28.13.35.17.51s.38,2,.41,2.28a3.89,3.89,0,0,1,0,.48s-.07.36-.08.47v.06a.76.76,0,0,0,0,.15.74.74,0,0,0,.31.53v0l.08.26a3.51,3.51,0,0,0,.74,1.16v0L2.34,19h0a2.77,2.77,0,0,0-.53-.69l-.08-.08-.21-.18v0a.86.86,0,0,0-.28-.63l-.08-.07s-.09-1.89,0-2.57a2.08,2.08,0,0,0,.74-.28c.06,0,2.13.15,2.2.16a3.17,3.17,0,0,1,.35-.08l.39,0a.69.69,0,0,0,.38-.12.61.61,0,0,0,.23-.34l0-.1v0h0V13.9l0-.07a.39.39,0,0,0-.06-.15l.33-.13L6,13.38a2.25,2.25,0,0,0,.56-.59c0-.08.1-.16.14-.24A2.1,2.1,0,0,1,5.8,13.8v.13a1.94,1.94,0,0,1,0,.24,1,1,0,0,1-.24.46,1.13,1.13,0,0,1-.53.31c.17.59.53,1.62.53,1.69A8.61,8.61,0,0,0,6.13,18a10.22,10.22,0,0,0,.19,1.32,1.5,1.5,0,0,1,0,.29c0,.08,0,.55.07,1.31,0,.07,0,.08,0,.16a.28.28,0,0,1-.07.17v0l-.08.1-.1.15a2.26,2.26,0,0,0-.22.37l-.09.19,0,.08a3.14,3.14,0,0,0-.23.86H7.14a1.24,1.24,0,0,1,0-.27,1.88,1.88,0,0,1,.23-1,1.37,1.37,0,0,1,.24-.43,3.39,3.39,0,0,0-.12-.65A4.8,4.8,0,0,0,7.11,20L7,18.07c0-.08.13-.73.19-1.07a3.45,3.45,0,0,1,.3-1c0-.06-.17-.25-.23-.36l0,0h0c.08.07,1.55.5,1.55.5a3.67,3.67,0,0,1,.46-.49,18,18,0,0,0,1.94-.24,17,17,0,0,0,2.7-.71l.43-.16,0,0v.08a2.64,2.64,0,0,0,0,.29,3.13,3.13,0,0,0,.31,1.1,2.36,2.36,0,0,0,.25.41l0,0a2.05,2.05,0,0,0-.15.42,2.7,2.7,0,0,0,0,.28,2,2,0,0,0,0,.35,20.25,20.25,0,0,0-1.73,2.37h0a.76.76,0,0,0-.37.68,1,1,0,0,0,0,.25,1,1,0,0,0,.12.25l-.05.26a2.74,2.74,0,0,0,0,.58h0a2.86,2.86,0,0,0,.18.84.8.8,0,0,0,.08.16L14.23,22l0,0a2.42,2.42,0,0,0-.19-.4,3.85,3.85,0,0,0-.24-.4.84.84,0,0,0,.24-.5v-.19a1,1,0,0,0-.18-.56,8.35,8.35,0,0,1,.59-.86,5.86,5.86,0,0,1,.67-.71,2.15,2.15,0,0,1,.52-.18l.36-.05.41-.07h0l-.1-.31v0a2.16,2.16,0,0,1,0-.36c0-.08,0-.17.06-.24l0-.07.05-.09,0,0,.53-.67,0,0,0,0a5.18,5.18,0,0,1-.56-.87,3.85,3.85,0,0,1-.19-.47,4.37,4.37,0,0,1-.17-.62l-.05-.3v0l-.2-.15a2.78,2.78,0,0,1-.48-.49c-.08-.12-.16-.24-.23-.37l0-.08.05.07a2.59,2.59,0,0,0,.85.76l0,0,.09,0,.2.1.05.27c0,.13.07.26.11.39s.07.22.11.33a4.74,4.74,0,0,0,.24.51,5.07,5.07,0,0,0,.36.54l.09.12a3.89,3.89,0,0,0,.91.81,3.52,3.52,0,0,0,.58.3l.17.06a1.46,1.46,0,0,0,.47.6,2.43,2.43,0,0,1,.3.26,2.8,2.8,0,0,1,.31.73A10.1,10.1,0,0,1,20.28,20c0,.07,0,.38,0,.46s-.22.8-.22.88v0a2.39,2.39,0,0,0-.76,1,2.42,2.42,0,0,0-.2.69h1.3a2.67,2.67,0,0,1,.16-.6,3.11,3.11,0,0,1,.53-.91,1.29,1.29,0,0,1,.16-.17.21.21,0,0,0,0-.12v0a2.74,2.74,0,0,0-.2-.77.75.75,0,0,1-.08-.24c0-.07-.13-1.58-.13-1.64a6.45,6.45,0,0,1,.51-1.1,2.32,2.32,0,0,0-.25-.27,1.16,1.16,0,0,1-.42-.59c0-.07-.07-.07-.07-.15a.1.1,0,0,1,0-.07,1.7,1.7,0,0,0,1,.33,1.51,1.51,0,0,1-.54-1.5ZM13.73,8h0l-1.07.4-.08,0,1-.77.05,0Zm-.05-.65h0l-.49.38L12,8.73l-.09-.1,1.22-1.35,0,0h0l.13-.15Zm-1.17-.65.09-.09.05-.06v0L13.2,7,11.55,8.82l-.06-.06-1-.8a5,5,0,0,0,.91-.38,5.22,5.22,0,0,0,1-.71l0,0,.06-.07Zm-2-5.05a.83.83,0,0,1,.18-.13l.26.22h0l.11.07a.51.51,0,0,0,.14-.23V1.57a.14.14,0,0,0-.09-.14l-.2-.09a.25.25,0,0,0-.06-.13A.92.92,0,0,1,11,1l.17-.1a1.27,1.27,0,0,0,.2-.12c0,.11,0,.18,0,.26v.41h.15V1.1l.05-.55h.06l.11,0h.11a3.44,3.44,0,0,1-.08.46l-.07.46h.15c0-.18.06-.34.1-.51l.12-.43a1.67,1.67,0,0,1,.4.1h0a1,1,0,0,1,.24.14l0,0,.14.16.17.24s0,.08,0,.13l0,.08,0,.09h0l-.13,0a2.21,2.21,0,0,1-.37,0H12.4a1,1,0,0,1-.27.47,1.06,1.06,0,0,1-.36.26l-.1,0h-.06V2.6l-.12,0V1.87h-.14V2l0,0-.17.18,0,0h0l0,0L11,2.44l-.13-.09-.09-.1,0-.06,0-.07,0-.06V2l-.05-.11a.22.22,0,0,0-.05-.08l-.07-.06A.27.27,0,0,1,10.52,1.69Zm-.84.68c-.34,0-.32-.17-.32-.17h.58S10,2.35,9.68,2.37Zm-.45-.86.41,0s.2.14.22.26a2.08,2.08,0,0,1,0,.25H9.22A.51.51,0,0,1,9.23,1.51ZM7.53.82h0a0,0,0,0,1,0,0c0-.07.09-.23.25-.38A1.46,1.46,0,0,1,8,.23c.09-.06.16-.08.19-.06h0v0a.13.13,0,0,1,0,.06A.92.92,0,0,1,8,.59C7.78.76,7.59.86,7.53.82Zm.81.79A2.38,2.38,0,0,1,7.62,1L7.77.9A1.76,1.76,0,0,0,8.06.69a1.41,1.41,0,0,0,.2-.24,2.64,2.64,0,0,0,.78,1l0,.1v0a.75.75,0,0,0,0,.26A2.54,2.54,0,0,1,8.34,1.61Zm.31,1.07c-.07-.06-.05-.21.07-.48L8.87,2,9,2.11a.62.62,0,0,0,.08.12s.08,0,.1,0a.52.52,0,0,0,.16.2,1.17,1.17,0,0,1-.32.19C9,2.68,8.71,2.74,8.65,2.68Zm.6.61V2.82a.19.19,0,0,1,.05-.15l.17-.11,0-.05a.57.57,0,0,0,.34,0A.6.6,0,0,0,10,2.39a.29.29,0,0,0,.09-.2h.16v.3h0v0a.57.57,0,0,0,0,.18.66.66,0,0,0,.14.41.76.76,0,0,0,.6.32.82.82,0,0,1,0,.27c0,.08-.1.3-.13.42a2,2,0,0,0-.13.67l-.24-.2L10.63,4l.11-.39a1,1,0,0,1-.65-.45,3.85,3.85,0,0,1-.42.11Zm-.79,3,1.63-1.79,1.05.86,0,.13c0,.09-.08.17-.13.26s-.11.17-.17.26a2.84,2.84,0,0,1-.24.26l0,0a2.43,2.43,0,0,1-.79.48,1.82,1.82,0,0,1-.54.1Zm0,1.49a.26.26,0,0,1-.1-.09,2.22,2.22,0,0,1-.17-.31c0-.19.41-.17.5-.24s.13-.17.27-.23V7a1.58,1.58,0,0,0,0,.38A1.78,1.78,0,0,0,9,7.89a2,2,0,0,0-.22.1A1.18,1.18,0,0,0,8.42,7.74Zm12.49,3.93a2.5,2.5,0,0,1-.57,1.52h0a10.28,10.28,0,0,0,.28-1.1v-.74a6.18,6.18,0,0,0-.47-1.51h0l0,0a2.56,2.56,0,0,1,.48.64l0,.05a2.22,2.22,0,0,1,.24.88v.22Zm42.49-7V8.09H59.51V23H55.33V8.09H51.52V4.65Zm14.41,0h4.5c2.92,0,8.85,0,8.85,9,0,3.44-1.06,6.52-3.13,8A8.29,8.29,0,0,1,82.82,23h-5ZM82,19.83h.72c1.66,0,4-.19,4-6.19,0-5.64-2.32-5.83-4-5.83H82ZM71.05,4.65,76.49,23H72.23l-1-3.77H65.9L65,23H61.08L66.81,4.65Zm-.57,11.42L68.56,8.58,66.7,16.07ZM120,13.56c0,3.36-.63,9.44-6.93,9.44-6.13,0-6.93-5.75-6.93-9.44,0-3.52.71-9.46,6.93-9.46S120,9.74,120,13.56Zm-9.45,0c0,3.94.4,6.16,2.52,6.16s2.52-2.28,2.52-6.16-.34-6.19-2.52-6.19S110.55,9.57,110.55,13.56Zm-9.91-8.91L106.08,23h-4.27l-1-3.77H95.48L94.54,23H90.67L96.4,4.65ZM103.13.93a4.23,4.23,0,0,1-3.38,2.12,5.63,5.63,0,0,1-2.38-.68A4,4,0,0,0,96.09,2c-.55,0-.81.24-1.44.85L93.39,2c1.38-1.62,2.3-2,3.24-2a6,6,0,0,1,2.49.69,3.37,3.37,0,0,0,1.29.33c.6,0,1-.47,1.4-1Zm-3.06,15.14L98.14,8.58l-1.85,7.49Z"/></g></g></svg>